<?xml version="1.0" encoding="utf-8"?>
<!-- Generator: Adobe Illustrator 16.0.0, SVG Export Plug-In . SVG Version: 6.00 Build 0)  -->
<!DOCTYPE svg PUBLIC "-//W3C//DTD SVG 1.1//EN" "http://www.w3.org/Graphics/SVG/1.1/DTD/svg11.dtd">
<svg version="1.1" id="Layer_1" xmlns="http://www.w3.org/2000/svg" xmlns:xlink="http://www.w3.org/1999/xlink" x="0px" y="0px"
	 width="2500px" height="635px" viewBox="0 0 2500 635" enable-background="new 0 0 2500 635" xml:space="preserve">
<path display="none" fill="#7ED321" d="M460.873,71.611l9.111-9.287l11.807-12.041l-14.57-8.496
	c-46.784-27.342-100.01-41.726-154.199-41.67C141.294,0.117,2.183,141.992,2.183,316.88s139.111,316.768,310.839,316.768
	c171.729,0,310.836-141.88,310.836-316.768c0.046-37.649-6.522-75.014-19.404-110.391l-7.139-19.565l-14.58,14.873l-9.692,9.883
	l-5.675,5.786l2.628,7.666c10.093,29.535,15.224,60.537,15.186,91.748c0,153.506-121.909,277.847-272.163,277.847
	c-150.249,0-272.158-124.341-272.158-277.847S162.769,39.038,313.018,39.038c46.274-0.055,91.766,11.94,131.997,34.805l3.013,1.709
	h8.984L460.873,71.611z M442.119,53.223l9.374,9.194V49.282v13.135l6.485-11.426c-44.185-25.106-94.143-38.279-144.961-38.223
	C148.145,12.764,14.59,148.979,14.59,316.88s133.555,304.116,298.428,304.116c164.877,0,298.432-136.216,298.432-304.116
	c0.039-34.107-5.57-67.985-16.602-100.259l-3.047,13.452l9.693-9.888l-21.719-4.688c11.827,32.49,17.854,66.806,17.808,101.382
	c0,160.498-127.461,290.498-284.561,290.498c-157.104,0-284.57-130.005-284.57-290.498S155.923,26.387,313.028,26.387
	c49.538-0.058,98.197,13.088,140.967,38.086l6.616-11.343l-9.38-9.194l-9.106,9.287H442.119z"/>
<path display="none" fill="#7ED321" d="M241.699,391.343l1.777-1.816L596.104,29.873l13.633-13.901l27.255,27.803l-13.623,13.901
	L270.733,417.329l-1.772,1.812l-27.261,27.803l-13.628-13.901L129.673,332.69l-13.628-13.901l27.261-27.803l13.623,13.901
	L241.699,391.343z"/>
<path display="none" fill="#5E5E5E" d="M731.172,313.164c0-23.35,4.102-46.611,12.314-69.775
	c8.207-23.169,20.156-43.877,35.85-62.119c15.688-18.242,35.023-33.11,58.008-44.604c22.988-11.494,49.076-17.236,78.266-17.236
	c34.658,0,64.209,7.842,88.658,23.53c24.447,15.688,42.689,36.118,54.73,61.294l-30.648,18.608
	c-6.201-12.769-13.682-23.535-22.438-32.29c-8.76-8.755-18.242-15.869-28.461-21.343c-9.979-5.385-20.662-9.347-31.738-11.768
	c-10.607-2.333-21.435-3.525-32.295-3.555c-23.35,0-43.965,4.741-61.841,14.229c-17.881,9.482-32.93,21.89-45.151,37.217
	c-12.222,15.322-21.436,32.563-27.637,51.714c-6.201,19.155-9.307,38.584-9.307,58.286c0,21.528,3.74,42.139,11.221,61.846
	c7.48,19.702,17.695,37.124,30.649,52.266c12.758,14.988,28.39,27.27,45.972,36.118c17.695,8.94,36.938,13.413,57.738,13.413
	c10.943,0,22.164-1.367,33.658-4.106c11.682-2.811,22.917-7.231,33.384-13.135c10.895-6.121,20.925-13.668,29.824-22.441
	c9.126-8.936,16.787-19.79,22.988-32.563l31.738,16.421c-6.118,14.473-15.048,27.587-26.27,38.584
	c-11.241,11.075-23.945,20.558-37.759,28.184c-13.889,7.673-28.692,13.558-44.058,17.515c-15.503,4.014-30.737,6.021-45.698,6.021
	c-26.636,0-51.074-5.84-73.335-17.515c-22.256-11.67-41.411-26.904-57.466-45.698c-16.055-18.789-28.55-40.137-37.49-64.033
	C735.645,362.329,731.172,337.974,731.172,313.164L731.172,313.164z M1199.649,515.659c-14.596,0-27.91-2.28-39.951-6.836
	c-12.041-4.565-22.344-10.859-30.924-18.887c-8.459-7.871-15.251-17.362-19.971-27.91c-4.726-10.493-7.153-21.876-7.118-33.384
	c0-13.135,2.92-25.083,8.76-35.85c5.835-10.762,14.048-19.971,24.624-27.637c10.581-7.666,23.262-13.589,38.037-17.788
	s31.104-6.294,48.984-6.294c14.229,0,28.822,1.279,43.779,3.833c14.961,2.554,28.281,6.201,39.956,10.947v-25.723
	c0-25.176-7.208-45.151-21.622-59.932c-14.408-14.775-33.838-22.163-58.285-22.163c-15.322,0-30.557,2.92-45.698,8.755
	c-15.138,5.84-30.557,14.233-46.24,25.176l-13.136-24.624c18.604-12.407,36.666-21.714,54.176-27.915
	c17.515-6.201,35.756-9.302,54.73-9.302c34.659,0,62.208,10.034,82.643,30.098c20.43,20.068,30.645,47.798,30.645,83.188v128.618
	c0,10.215,4.38,15.322,13.135,15.322v32.837c-2.915,0.366-5.654,0.64-8.208,0.82c-2.554,0.186-4.741,0.278-6.567,0.278
	c-7.295,0-13.955-2.192-19.976-6.567c-6.021-4.38-9.396-10.947-10.128-19.707l-1.094-22.437
	c-12.402,16.782-28.73,29.829-48.979,39.131c-20.25,9.302-40.771,13.955-61.572,13.955V515.659z M1208.955,487.202
	c16.416,0,32.744-3.56,48.979-10.674c16.24-7.114,29.102-16.875,38.584-29.277c2.57-3.309,4.772-6.888,6.568-10.674
	c1.826-3.833,2.734-7.388,2.734-10.674v-46.519c-12.6-4.797-25.603-8.459-38.854-10.942c-13.5-2.559-26.635-3.833-39.404-3.833
	c-26.635,0-48.256,5.381-64.854,16.143c-16.602,10.767-24.902,25.635-24.902,44.604c0,7.666,1.461,15.142,4.375,22.441
	c2.92,7.295,7.393,13.867,13.408,19.702c6.021,5.84,13.413,10.581,22.168,14.229s19.156,5.469,31.197,5.469V487.202z
	 M1405.43,366.797c0-20.068,3.467-39.038,10.4-56.914c6.934-17.881,16.689-33.477,29.277-46.797
	c12.588-13.315,27.637-23.804,45.151-31.465c17.515-7.666,36.851-11.494,58.008-11.494c27.002,0,50.537,6.113,70.605,18.335
	c20.067,12.222,35.204,28.73,45.425,49.526l-36.123,11.494c-8.027-14.6-19.156-25.996-33.385-34.204
	c-14.229-8.213-30.102-12.314-47.611-12.314c-14.6,0-28.189,2.915-40.771,8.755c-12.404,5.704-23.563,13.794-32.843,23.809
	c-9.302,10.034-16.602,21.982-21.89,35.845c-5.293,13.867-7.935,29.004-7.935,45.425c0,16.055,2.734,31.201,8.208,45.425
	c5.469,14.229,12.955,26.543,22.437,36.943c9.333,10.284,20.581,18.65,33.116,24.629c12.582,6.021,25.996,9.033,40.225,9.033
	c9.121,0,18.148-1.279,27.09-3.833c8.728-2.465,17.099-6.053,24.902-10.674c7.66-4.561,14.229-9.761,19.702-15.596
	c5.468-5.84,9.302-12.041,11.494-18.608l36.118,10.942c-4.014,10.22-9.849,19.614-17.515,28.188
	c-7.661,8.574-16.689,16.05-27.091,22.437c-10.4,6.387-21.889,11.313-34.477,14.775c-12.75,3.488-25.913,5.237-39.131,5.2
	c-20.801,0-39.951-3.921-57.467-11.768c-17.515-7.842-32.656-18.604-45.425-32.29c-12.769-13.682-22.71-29.458-29.824-47.339
	C1408.984,406.387,1405.429,387.231,1405.43,366.797L1405.43,366.797z M1964.756,510.186h-37.217V350.928
	c0-32.471-5.566-56.738-16.689-72.788c-11.133-16.055-27.461-24.082-48.984-24.082c-10.582,0-21.07,2.1-31.471,6.294
	c-10.548,4.285-20.412,10.092-29.277,17.236c-9.168,7.347-17.192,16.018-23.809,25.728c-6.755,9.864-11.839,20.773-15.049,32.29
	v174.58h-37.217V110.669h37.217v178.96c11.67-21.523,27.544-38.491,47.612-50.894c20.068-12.407,41.593-18.608,64.581-18.608
	c16.416,0,30.371,3.008,41.865,9.033c11.312,5.854,20.926,14.523,27.915,25.171c7.114,10.767,12.314,23.716,15.596,38.857
	c3.286,15.142,4.927,31.836,4.927,50.078V510.186z M2166.704,515.659c-20.802,0-39.952-3.921-57.466-11.768
	c-17.516-7.842-32.656-18.604-45.426-32.29c-12.768-13.682-22.709-29.458-29.828-47.339c-7.115-17.876-10.67-37.031-10.67-57.466
	c0-20.068,3.555-38.945,10.67-56.641c7.119-17.695,17.061-33.203,29.828-46.523c12.77-13.315,27.818-23.896,45.152-31.738
	c17.334-7.847,36.396-11.768,57.192-11.768s39.858,3.921,57.192,11.768c17.329,7.842,32.197,18.516,44.6,32.017
	c12.407,13.496,22.07,29.004,29.004,46.519c6.934,17.51,10.4,36.118,10.4,55.82c0,2.92-0.088,5.84-0.273,8.76
	c-0.181,2.915-0.454,4.922-0.82,6.021h-243.54c1.094,15.322,4.653,29.458,10.669,42.412c6.021,12.954,13.687,24.17,22.988,33.657
	c9.214,9.425,20.184,16.956,32.29,22.168c12.222,5.288,25.269,7.935,39.131,7.935c9.487,0,18.789-1.279,27.91-3.833
	c8.788-2.417,17.244-5.91,25.176-10.4c7.604-4.332,14.521-9.772,20.522-16.143c6.021-6.387,10.674-13.408,13.955-21.069l32.29,8.755
	c-4.406,10.628-10.71,20.365-18.604,28.735c-8.032,8.574-17.334,16.05-27.915,22.437s-22.256,11.313-35.024,14.775
	C2193.263,513.936,2180.012,515.684,2166.704,515.659L2166.704,515.659z M2271.781,352.573c-1.094-15.332-4.652-29.282-10.674-41.87
	c-6.02-12.588-13.682-23.442-22.982-32.568c-9.307-9.121-20.162-16.235-32.568-21.338c-12.402-5.112-25.537-7.666-39.404-7.666
	c-13.863,0-26.998,2.554-39.404,7.666c-12.403,5.103-23.258,12.217-32.559,21.338c-9.307,9.126-16.787,20.068-22.441,32.842
	c-5.654,12.769-9.034,26.636-10.123,41.592h210.156V352.573z M2498.36,496.504c-2.193,1.094-5.381,2.554-9.58,4.38
	c-4.752,2.033-9.591,3.858-14.502,5.469c-5.469,1.826-11.67,3.467-18.604,4.932c-6.934,1.46-14.234,2.188-21.895,2.188
	c-8.027,0-15.689-1.094-22.988-3.286c-7.295-2.188-13.682-5.566-19.156-10.122c-5.469-4.561-9.848-10.308-13.135-17.236
	c-3.281-6.934-4.922-14.961-4.922-24.087V254.609h-39.404v-29.551h39.404V128.73h37.213v96.323h65.674v29.551h-65.674v193.74
	c0.731,10.581,4.379,18.335,10.947,23.257c6.566,4.932,14.408,7.393,23.535,7.393c10.576,0,19.883-1.738,27.91-5.2
	c8.027-3.467,13.135-5.928,15.322-7.388L2498.36,496.504L2498.36,496.504z"/>
<image overflow="visible" width="278" height="278" xlink:href="../../../../plnnp.png"  transform="matrix(9.295 0 0 9.295 2.441406e-004 -962)">
</image>
</svg>
