<?xml version="1.0" encoding="utf-8"?>
<!-- Generator: Adobe Illustrator 16.0.0, SVG Export Plug-In . SVG Version: 6.00 Build 0)  -->
<!DOCTYPE svg PUBLIC "-//W3C//DTD SVG 1.1//EN" "http://www.w3.org/Graphics/SVG/1.1/DTD/svg11.dtd">
<svg version="1.1" id="Layer_1" xmlns="http://www.w3.org/2000/svg" xmlns:xlink="http://www.w3.org/1999/xlink" x="0px" y="0px"
	 width="2192px" height="2500px" viewBox="0 0 2192 2500" enable-background="new 0 0 2192 2500" xml:space="preserve">
<path display="none" fill="#95BF46" d="M1915.983,490.925c-1.721-12.5-12.671-19.418-21.721-20.18
	c-9.033-0.754-200.197-14.923-200.197-14.923s-132.766-131.807-147.337-146.396c-14.581-14.581-43.057-10.146-54.11-6.892
	c-1.626,0.479-29.007,8.93-74.298,22.945c-44.349-127.62-122.619-244.897-260.316-244.897c-3.802,0-7.714,0.154-11.627,0.377
	c-39.161-51.79-87.671-74.29-129.571-74.29c-320.763,0-474.007,400.985-522.055,604.751
	C370.11,650.043,281.565,677.5,270.255,681.053c-69.572,21.824-71.772,24.016-80.907,89.572
	C182.473,820.257,0.435,2228.039,0.435,2228.039L1418.91,2493.81l768.579-166.267c0,0-269.803-1824.118-271.498-1836.618H1915.983z
	 M1339.921,349.726l-120.025,37.149c0.042-8.459,0.085-16.781,0.085-25.882c0-79.315-11.01-143.176-28.673-193.801
	C1262.258,176.096,1309.51,256.824,1339.921,349.726z M1103.294,182.919c19.727,49.426,32.552,120.36,32.552,216.079
	c0,4.897-0.043,9.375-0.086,13.904c-78.057,24.178-162.877,50.428-247.885,76.764
	C935.606,305.454,1025.075,216.481,1103.294,182.919L1103.294,182.919z M1007.994,92.706c13.845,0,27.791,4.7,41.139,13.887
	c-102.799,48.374-212.987,170.206-259.521,413.501l-195.941,60.686c54.503-185.574,183.921-488.074,414.315-488.074H1007.994z"/>
<path display="none" fill="#5E8E3E" d="M1894.262,470.745c-9.033-0.754-200.197-14.923-200.197-14.923
	s-132.766-131.807-147.337-146.396c-5.454-5.428-12.809-8.21-20.497-9.409l-107.252,2193.776l768.511-166.25
	c0,0-269.812-1824.118-271.507-1836.618C1914.262,478.425,1903.312,471.507,1894.262,470.745"/>
<path display="none" fill="#FFFFFF" d="M1158.003,895.42l-94.769,281.9c0,0-83.031-44.315-184.812-44.315
	c-149.213,0-156.722,93.639-156.722,117.235c0,128.749,335.617,178.082,335.617,479.657c0,237.269-150.488,390.051-353.399,390.051
	c-243.493,0-368.014-151.541-368.014-151.541l65.197-215.411c0,0,127.996,109.889,236.002,109.889
	c70.573,0,99.28-55.564,99.28-96.164c0-167.945-275.343-175.437-275.343-451.404c0-232.269,166.713-457.037,503.236-457.037
	C1093.946,858.279,1158.003,895.42,1158.003,895.42"/>
<image overflow="visible" width="900" height="600" xlink:href="../../../../lgsanja.png"  transform="matrix(2.7814 0 0 2.7814 -98.2888 505.6406)">
</image>
</svg>
